<svg width="26" height="29" viewBox="0 0 26 29" fill="none" xmlns="http://www.w3.org/2000/svg">
<path d="M18.6667 13.1667H7.33333C6.55417 13.1667 5.91667 13.8042 5.91667 14.5833C5.91667 15.3625 6.55417 16 7.33333 16H18.6667C19.4458 16 20.0833 15.3625 20.0833 14.5833C20.0833 13.8042 19.4458 13.1667 18.6667 13.1667ZM22.9167 3.25001H21.5V1.83334C21.5 1.05417 20.8625 0.416672 20.0833 0.416672C19.3042 0.416672 18.6667 1.05417 18.6667 1.83334V3.25001H7.33333V1.83334C7.33333 1.05417 6.69583 0.416672 5.91667 0.416672C5.1375 0.416672 4.5 1.05417 4.5 1.83334V3.25001H3.08333C1.51083 3.25001 0.25 4.525 0.25 6.08334V25.9167C0.25 27.475 1.51083 28.75 3.08333 28.75H22.9167C24.475 28.75 25.75 27.475 25.75 25.9167V6.08334C25.75 4.525 24.475 3.25001 22.9167 3.25001ZM21.5 25.9167H4.5C3.72083 25.9167 3.08333 25.2792 3.08333 24.5V10.3333H22.9167V24.5C22.9167 25.2792 22.2792 25.9167 21.5 25.9167ZM14.4167 18.8333H7.33333C6.55417 18.8333 5.91667 19.4708 5.91667 20.25C5.91667 21.0292 6.55417 21.6667 7.33333 21.6667H14.4167C15.1958 21.6667 15.8333 21.0292 15.8333 20.25C15.8333 19.4708 15.1958 18.8333 14.4167 18.8333Z" fill="black"/>
</svg>
