<svg width="24" height="24" viewBox="0 0 24 24" fill="none" xmlns="http://www.w3.org/2000/svg">
<path d="M10 13.3333H0.666667C0.266667 13.3333 0 13.6 0 14V23.3333C0 23.7333 0.266667 24 0.666667 24H10C10.4 24 10.6667 23.7333 10.6667 23.3333V14C10.6667 13.6 10.4 13.3333 10 13.3333ZM9.33333 22.6667H1.33333V14.6667H9.33333V22.6667ZM10 0H0.666667C0.266667 0 0 0.266667 0 0.666667V10C0 10.4 0.266667 10.6667 0.666667 10.6667H10C10.4 10.6667 10.6667 10.4 10.6667 10V0.666667C10.6667 0.266667 10.4 0 10 0ZM9.33333 9.33333H1.33333V1.33333H9.33333V9.33333ZM23.3333 0H14C13.6 0 13.3333 0.266667 13.3333 0.666667V10C13.3333 10.4 13.6 10.6667 14 10.6667H23.3333C23.7333 10.6667 24 10.4 24 10V0.666667C24 0.266667 23.7333 0 23.3333 0ZM22.6667 9.33333H14.6667V1.33333H22.6667V9.33333ZM23.3333 18H19.3333V14C19.3333 13.6 19.0667 13.3333 18.6667 13.3333C18.2667 13.3333 18 13.6 18 14V18H14C13.6 18 13.3333 18.2667 13.3333 18.6667C13.3333 19.0667 13.6 19.3333 14 19.3333H18V23.3333C18 23.7333 18.2667 24 18.6667 24C19.0667 24 19.3333 23.7333 19.3333 23.3333V19.3333H23.3333C23.7333 19.3333 24 19.0667 24 18.6667C24 18.2667 23.7333 18 23.3333 18Z" fill="black"/>
</svg>
