<svg width="20" height="22" viewBox="0 0 20 22" fill="none" xmlns="http://www.w3.org/2000/svg">
<path fill-rule="evenodd" clip-rule="evenodd" d="M18.8064 6.62358L18.184 5.54349C17.6574 4.62957 16.4905 4.31429 15.5753 4.83869C15.1397 5.09531 14.6198 5.16812 14.1305 5.04106C13.6411 4.91399 13.2224 4.59749 12.9666 4.16134C12.8021 3.88412 12.7137 3.56836 12.7103 3.24601C12.7251 2.72919 12.5302 2.22837 12.1698 1.85764C11.8094 1.48691 11.3143 1.27783 10.7973 1.27805H9.54325C9.03672 1.27805 8.55107 1.47988 8.19376 1.83891C7.83644 2.19795 7.63693 2.68456 7.63937 3.19109C7.62435 4.23689 6.77224 5.07678 5.72632 5.07667C5.40397 5.07333 5.08821 4.98491 4.81099 4.82038C3.89582 4.29598 2.72887 4.61126 2.20229 5.52519L1.5341 6.62358C1.00817 7.53636 1.31916 8.70258 2.22975 9.23228C2.82166 9.57401 3.18629 10.2056 3.18629 10.889C3.18629 11.5725 2.82166 12.2041 2.22975 12.5458C1.32031 13.0719 1.00898 14.2353 1.5341 15.1453L2.16568 16.2346C2.4124 16.6798 2.82636 17.0083 3.31595 17.1474C3.80554 17.2866 4.3304 17.2249 4.77438 16.976C5.21084 16.7213 5.73094 16.6515 6.2191 16.7822C6.70725 16.9128 7.12299 17.233 7.37392 17.6716C7.53845 17.9489 7.62686 18.2646 7.63021 18.587C7.63021 19.6435 8.48671 20.5 9.54325 20.5H10.7973C11.8502 20.5 12.7053 19.6491 12.7103 18.5961C12.7079 18.088 12.9086 17.6 13.2679 17.2407C13.6272 16.8814 14.1152 16.6806 14.6233 16.6831C14.9449 16.6917 15.2594 16.7797 15.5387 16.9394C16.4515 17.4653 17.6177 17.1543 18.1474 16.2437L18.8064 15.1453C19.0615 14.7075 19.1315 14.186 19.001 13.6963C18.8704 13.2067 18.55 12.7893 18.1108 12.5366C17.6715 12.2839 17.3511 11.8665 17.2206 11.3769C17.09 10.8873 17.16 10.3658 17.4151 9.92793C17.581 9.63831 17.8211 9.39817 18.1108 9.23228C19.0159 8.70286 19.3262 7.54346 18.8064 6.63274V6.62358Z" stroke="black" stroke-width="1.5" stroke-linecap="round" stroke-linejoin="round"/>
<path d="M10.1746 13.525C11.6304 13.525 12.8106 12.3448 12.8106 10.889C12.8106 9.4332 11.6304 8.25302 10.1746 8.25302C8.71875 8.25302 7.53857 9.4332 7.53857 10.889C7.53857 12.3448 8.71875 13.525 10.1746 13.525Z" stroke="black" stroke-width="1.5" stroke-linecap="round" stroke-linejoin="round"/>
</svg>
