<?xml version="1.0" encoding="utf-8"?>
<!-- Generator: Adobe Illustrator 27.0.0, SVG Export Plug-In . SVG Version: 6.00 Build 0)  -->
<svg version="1.1" id="Layer_1" xmlns="http://www.w3.org/2000/svg" xmlns:xlink="http://www.w3.org/1999/xlink" x="0px" y="0px"
	 viewBox="0 0 300 300" style="enable-background:new 0 0 300 300;" xml:space="preserve">
<style type="text/css">
	.st0{fill:#231F20;}
</style>
<g>
	<g>
		<path class="st0" d="M158.03,283h-16.1c-18.85,0-34.18-15.33-34.18-34.18c-0.03-2.34-0.7-4.75-1.94-6.84
			c-2.01-3.51-5.27-6.02-9.02-7.02c-3.83-1.03-7.82-0.5-11.21,1.49c-8.01,4.5-17.51,5.62-26.2,3.16
			c-8.83-2.52-16.13-8.31-20.56-16.31l-8.02-13.84c-9.4-16.27-3.8-37.13,12.45-46.52c4.61-2.66,7.46-7.62,7.46-12.94
			c0-5.32-2.86-10.27-7.46-12.93c-16.25-9.45-21.83-30.37-12.46-46.63l8.69-14.29c9.26-16.1,30.16-21.76,46.5-12.4
			c2.23,1.32,4.63,1.99,7.06,2.02c0.01,0,0.01,0,0.01,0c8.02,0,14.7-6.6,14.82-14.71c-0.04-8.94,3.48-17.54,9.92-24.01
			C124.22,20.56,132.8,17,141.93,17h16.1c0.01,0,0.02,0,0.03,0c9.18,0,18.1,3.77,24.49,10.36c6.41,6.59,9.93,15.64,9.65,24.81
			c0.03,2.05,0.7,4.46,1.94,6.54c2.01,3.42,5.3,5.91,9.09,6.89c3.82,1,7.82,0.45,11.23-1.57c16.42-9.39,37.32-3.75,46.72,12.53
			l8,13.87c0.2,0.37,0.39,0.75,0.55,1.13c8.47,16.05,2.81,36.25-12.96,45.48c-2.32,1.32-4.17,3.18-5.45,5.41
			c-2.01,3.44-2.56,7.55-1.54,11.33c1.03,3.83,3.48,7.04,6.93,9.02c7.91,4.58,13.56,11.93,15.92,20.76
			c2.32,8.69,1.05,18.14-3.47,25.92l-8.52,14.2c-9.36,16.11-30.3,21.71-46.54,12.32c-2.18-1.24-4.68-1.94-7.22-2.01
			c-0.01,0-0.03,0-0.04,0c-3.7,0-7.53,1.58-10.29,4.34c-2.77,2.77-4.35,6.62-4.34,10.56C192.12,267.73,176.79,283,158.03,283z
			 M92.99,215.21c2.95,0,5.9,0.38,8.77,1.14c8.67,2.31,16.21,8.11,20.68,15.92c2.9,4.89,4.5,10.62,4.56,16.45
			c0,8.34,6.7,15.03,14.93,15.03h16.1c8.19,0,14.89-6.67,14.92-14.87c-0.04-8.95,3.6-17.78,9.98-24.16
			c6.34-6.34,15.13-9.98,24.12-9.98c0.04,0,0.09,0,0.13,0c5.94,0.16,11.57,1.74,16.51,4.58c7.15,4.14,16.27,1.64,20.37-5.43
			l8.52-14.22c1.92-3.27,2.47-7.38,1.45-11.16c-1.03-3.84-3.48-7.05-6.93-9.04c-7.91-4.55-13.56-11.92-15.92-20.73
			c-2.32-8.7-1.05-18.15,3.47-25.93c2.96-5.15,7.28-9.46,12.47-12.44c6.96-4.07,9.39-13.17,5.35-20.25
			c-0.18-0.3-0.33-0.61-0.46-0.92l-7.51-13.02c-4.11-7.13-13.26-9.58-20.36-5.5c-7.76,4.58-16.94,5.85-25.76,3.55
			c-8.67-2.25-16.27-7.99-20.81-15.73c-2.95-4.94-4.55-10.67-4.63-16.5c0.13-4.41-1.4-8.35-4.21-11.23
			c-2.78-2.88-6.68-4.53-10.69-4.53c-0.01,0-0.01,0-0.02,0h-16.1c-3.97,0-7.7,1.55-10.5,4.36c-2.8,2.81-4.32,6.55-4.31,10.52
			c-0.27,18.76-15.6,33.87-34.17,33.87c-0.01,0-0.01,0-0.02,0c-5.92-0.06-11.65-1.67-16.66-4.64c-7-4.01-16.13-1.54-20.23,5.58
			l-8.69,14.29c-3.97,6.91-1.54,16.05,5.55,20.16c10.52,6.07,17.07,17.42,17.07,29.59c0,12.17-6.55,23.52-17.09,29.61
			c-7.06,4.07-9.48,13.14-5.41,20.21l8.1,13.98c2.03,3.66,5.22,6.19,9.08,7.28c3.77,1.07,7.92,0.58,11.36-1.34
			C81.11,216.75,87.03,215.21,92.99,215.21z"/>
	</g>
	<g>
		<path class="st0" d="M150.04,193.46c-23.97,0-43.47-19.49-43.47-43.46s19.5-43.47,43.47-43.47s43.46,19.5,43.46,43.47
			S174,193.46,150.04,193.46z M150.04,125.78c-13.35,0-24.21,10.86-24.21,24.21c0,13.35,10.86,24.21,24.21,24.21
			c13.35,0,24.21-10.86,24.21-24.21C174.24,136.65,163.39,125.78,150.04,125.78z"/>
	</g>
</g>
</svg>
