<?xml version="1.0" encoding="utf-8"?>
<!-- Generator: Adobe Illustrator 27.0.0, SVG Export Plug-In . SVG Version: 6.00 Build 0)  -->
<svg version="1.1" id="Layer_1" xmlns="http://www.w3.org/2000/svg" xmlns:xlink="http://www.w3.org/1999/xlink" x="0px" y="0px"
	 viewBox="0 0 31.4 31.4" style="enable-background:new 0 0 31.4 31.4;" xml:space="preserve">
<style type="text/css">
	.st0{stroke:#000000;stroke-width:0.75;stroke-miterlimit:10;}
</style>
<g id="_x37_PP1AJ.tif">
	<g>
		<path class="st0" d="M4.9,13.1c0.2,0.1,0.3-0.1,0.5-0.2c0.5-0.1,0.9-0.1,1.2,0.3c0.3,0.4,0.3,0.9,0,1.2c-0.8,0.8-1.6,1.7-2.4,2.4
			c-0.5,0.5-1.1,0.3-1.6-0.3c-0.6-0.8-1.1-1.6-1.6-2.5c-0.3-0.5-0.4-1,0-1.5c0.5-0.4,1-0.4,1.5,0.1c0.1,0.1,0.1,0.1,0.3,0.2
			c0.4-1.6,0.9-3.1,1.8-4.4c3-5,9.1-7.8,14.8-6.6C25.4,3.2,29.8,8,30.5,14c1.1,8.8-6.1,16.4-15,15.7c-3.9-0.3-7.1-1.9-9.6-5
			c-0.2-0.2-0.3-0.4-0.5-0.7c-0.3-0.5-0.2-1,0.2-1.3c0.5-0.3,1-0.3,1.4,0.1c0.3,0.3,0.6,0.7,0.9,1c5.7,6,15.6,4.5,19.3-2.9
			c3.6-7.2-0.5-15.6-8.4-17.2c-6.2-1.3-12.6,2.7-14,8.9C4.9,12.9,4.9,13,4.9,13.1z"/>
		<path class="st0" d="M17.2,11.6c0,1.1,0,2.1,0,3.2c0,0.6,0.2,1,0.7,1.3c1.5,1.1,2.9,2.2,4.3,3.3c0.7,0.5,0.7,1.4-0.1,1.8
			c-0.4,0.2-0.8,0.1-1.2-0.2c-1.7-1.3-3.5-2.6-5.2-3.9c-0.4-0.3-0.6-0.8-0.6-1.3c0-2.6,0-5.2,0-7.8c0-0.8,0.4-1.3,1-1.3
			c0.6,0,1,0.4,1.1,1.3C17.2,9.3,17.2,10.4,17.2,11.6C17.2,11.6,17.2,11.6,17.2,11.6z"/>
	</g>
</g>
</svg>
