<?xml version="1.0" encoding="utf-8"?>
<!-- Generator: Adobe Illustrator 27.0.0, SVG Export Plug-In . SVG Version: 6.00 Build 0)  -->
<svg version="1.1" id="Layer_1" xmlns="http://www.w3.org/2000/svg" xmlns:xlink="http://www.w3.org/1999/xlink" x="0px" y="0px"
	 viewBox="0 0 300 300" style="enable-background:new 0 0 300 300;" xml:space="preserve">
<style type="text/css">
	.st0{fill:#231F20;}
</style>
<path class="st0" d="M69.54,62.25c3.88,0,7.6-1.54,10.34-4.28c2.74-2.74,4.28-6.46,4.28-10.34c0-3.88-1.54-7.6-4.28-10.34
	C77.14,34.54,73.42,33,69.54,33H40.29c-3.88,0-7.6,1.54-10.34,4.28c-2.74,2.74-4.28,6.46-4.28,10.34v204.75
	c0,3.88,1.54,7.6,4.28,10.34c2.74,2.74,6.46,4.28,10.34,4.28h29.25c3.88,0,7.6-1.54,10.34-4.28c2.74-2.74,4.28-6.46,4.28-10.34
	s-1.54-7.6-4.28-10.34c-2.74-2.74-6.46-4.28-10.34-4.28H54.92V62.25H69.54z M271.66,141.52l-41.24-58.5
	c-2.24-3.15-5.63-5.29-9.44-5.95c-3.81-0.66-7.72,0.22-10.89,2.44c-1.58,1.11-2.93,2.52-3.96,4.15c-1.03,1.63-1.73,3.45-2.06,5.36
	c-0.33,1.9-0.27,3.85,0.16,5.74c0.43,1.88,1.23,3.66,2.35,5.23l25.15,35.39H113.42c-3.88,0-7.6,1.54-10.34,4.28
	c-2.74,2.74-4.28,6.46-4.28,10.34s1.54,7.6,4.28,10.34c2.74,2.74,6.46,4.28,10.34,4.28h117l-26.32,35.1
	c-1.15,1.54-1.99,3.28-2.47,5.15c-0.48,1.86-0.58,3.8-0.31,5.7c0.27,1.9,0.92,3.73,1.89,5.38c0.98,1.65,2.27,3.1,3.81,4.25
	c2.53,1.9,5.61,2.93,8.78,2.93c2.27,0,4.51-0.53,6.54-1.54c2.03-1.01,3.8-2.49,5.16-4.31l43.88-58.5c1.87-2.47,2.91-5.48,2.96-8.58
	C274.38,147.09,273.45,144.05,271.66,141.52z"/>
</svg>
